<svg width="28" height="28" viewBox="0 0 28 28" fill="none" xmlns="http://www.w3.org/2000/svg">
<path d="M25.833 13.8071V26.1401H1.5V13.8071H25.833Z" stroke="#ABFF52"/>
<path d="M13.6667 17.1406C14.4181 17.1406 15.1392 17.4393 15.6706 17.9707C16.2017 18.502 16.4997 19.2224 16.4997 19.9736C16.4997 20.725 16.2019 21.4462 15.6706 21.9775C15.1392 22.5089 14.4181 22.8066 13.6667 22.8066C12.9152 22.8066 12.1941 22.5089 11.6628 21.9775C11.1315 21.4462 10.8337 20.725 10.8337 19.9736C10.8337 19.2224 11.1317 18.502 11.6628 17.9707C12.1941 17.4393 12.9152 17.1406 13.6667 17.1406ZM20.1081 7.31836L20.322 7.61914L20.6725 7.50293L22.6872 6.83105L24.7321 12.8115H3.0954L16.4274 2.16016L20.1081 7.31836Z" stroke="#ABFF52"/>
<path d="M25.6667 13.3111H25.432L23.0013 6.20043L2.13867 13.3111L1.66667 13.3071M1 13.3124H1.66667L16.528 1.44043L20.284 6.7071" stroke="#ABFF52" stroke-width="2" stroke-linecap="square"/>
<path d="M17 19.9737C17 20.8578 16.6488 21.7056 16.0237 22.3307C15.3985 22.9559 14.5507 23.307 13.6666 23.307C12.7826 23.307 11.9347 22.9559 11.3096 22.3307C10.6845 21.7056 10.3333 20.8578 10.3333 19.9737C10.3333 19.0897 10.6845 18.2418 11.3096 17.6167C11.9347 16.9916 12.7826 16.6404 13.6666 16.6404C14.5507 16.6404 15.3985 16.9916 16.0237 17.6167C16.6488 18.2418 17 19.0897 17 19.9737Z" stroke="#ABFF52" stroke-width="2" stroke-linecap="square"/>
<path d="M26.3333 13.3071V26.6405H1V13.3071H26.3333Z" stroke="#ABFF52" stroke-width="2" stroke-linecap="square"/>
<path d="M1 13.3071H3.66667C3.66667 14.0144 3.38572 14.6926 2.88562 15.1927C2.38552 15.6928 1.70724 15.9738 1 15.9738V13.3071ZM26.3333 13.3071H23.6667C23.6667 14.0144 23.9476 14.6926 24.4477 15.1927C24.9478 15.6928 25.6261 15.9738 26.3333 15.9738V13.3071ZM1 26.6405H3.66933C3.66968 26.2898 3.60088 25.9426 3.46686 25.6185C3.33283 25.2945 3.13623 25.0001 2.88829 24.7522C2.64035 24.5042 2.34594 24.3076 2.02192 24.1736C1.69791 24.0396 1.35064 23.9708 1 23.9711V26.6405ZM26.3333 26.6405H23.6667C23.6667 25.9332 23.9476 25.2549 24.4477 24.7548C24.9478 24.2547 25.6261 23.9738 26.3333 23.9738V26.6405Z" stroke="#ABFF52" stroke-width="2" stroke-linecap="square"/>
</svg>
